<?xml version="1.0" encoding="iso-8859-1"?>
<!-- Uploaded to: SVG Repo, www.svgrepo.com, Generator: SVG Repo Mixer Tools -->
<svg height="800px" width="800px" version="1.1" id="Capa_1" xmlns="http://www.w3.org/2000/svg" xmlns:xlink="http://www.w3.org/1999/xlink" 
	 viewBox="0 0 17.787 17.787" xml:space="preserve">
<g>
	<g>
		<path style="fill:#030104;" d="M17.464,12.718v-8.45h-0.536l-4.312,0.004L8.754,2.669L4.982,4.272l-4.66-0.004v8.451H0v0.685
			h1.072c0,0.947,0.768,1.715,1.714,1.715c0.947,0,1.715-0.768,1.715-1.715h8.732c0,0.947,0.768,1.715,1.714,1.715
			c0.947,0,1.715-0.768,1.715-1.715h1.125v-0.685L17.464,12.718L17.464,12.718z M4.661,11.898H1.768V5.981h2.894v5.917H4.661z
			 M10.822,8.617H6.281V6.302h4.541C10.822,6.302,10.822,8.617,10.822,8.617z M16.286,8.617h-4.092V6.302h4.092
			C16.286,6.302,16.286,8.617,16.286,8.617z"/>
		<polygon style="fill:#030104;" points="7.112,2.917 0.442,2.917 0.442,3.921 4.982,3.921 		"/>
		<polygon style="fill:#030104;" points="17.398,3.921 17.398,2.917 10.727,2.917 12.858,3.921 		"/>
	</g>
</g>
</svg>